<?xml version="1.0" encoding="UTF-8" standalone="no"?>
<!DOCTYPE svg PUBLIC "-//W3C//DTD SVG 1.1//EN"
 "http://www.w3.org/Graphics/SVG/1.1/DTD/svg11.dtd">
<!-- Generated by graphviz version 2.43.0 (0)
 -->
<!-- Title: physicalDag Pages: 1 -->
<svg width="1200pt" height="485pt"
 viewBox="0.00 0.00 1199.93 485.05" xmlns="http://www.w3.org/2000/svg" xmlns:xlink="http://www.w3.org/1999/xlink">
<g id="graph0" class="graph" transform="scale(1 1) rotate(0) translate(4 481.05)">
<title>physicalDag</title>
<polygon fill="white" stroke="transparent" points="-4,4 -4,-481.05 1195.93,-481.05 1195.93,4 -4,4"/>
<!-- o0 -->
<g id="node1" class="node">
<title>o0</title>
<g id="a_node1"><a xlink:title="External data input">
<ellipse fill="black" stroke="black" cx="355.26" cy="-473.45" rx="3.6" ry="3.6"/>
</a>
</g>
</g>
<!-- p0 -->
<g id="node6" class="node">
<title>p0</title>
<ellipse fill="#4545e6" stroke="black" cx="355.26" cy="-340.89" rx="111.03" ry="45.92"/>
<text text-anchor="start" x="306.76" y="-356.69" font-family="Times,serif" font-weight="bold" font-size="14.00">writeFile (2)</text>
<text text-anchor="start" x="287.26" y="-336.69" font-family="Times,serif" font-size="14.00">Input:</text>
<text text-anchor="start" x="346.26" y="-336.69" font-family="Times,serif" font-size="14.00">1 file</text>
<text text-anchor="start" x="386.26" y="-336.69" font-family="Times,serif" font-size="14.00">861B</text>
<text text-anchor="start" x="287.26" y="-317.69" font-family="Times,serif" font-size="14.00">Output:</text>
<text text-anchor="start" x="346.26" y="-317.69" font-family="Times,serif" font-size="14.00">1 file</text>
<text text-anchor="start" x="395.26" y="-317.69" font-family="Times,serif" font-size="14.00">8B</text>
</g>
<!-- o0&#45;&gt;p0 -->
<g id="edge1" class="edge">
<title>o0&#45;&gt;p0</title>
<path fill="none" stroke="#4545e6" stroke-width="8.64" d="M355.26,-469.72C355.26,-460.18 355.26,-427.25 355.26,-397.2"/>
<polygon fill="#4545e6" stroke="#4545e6" stroke-width="8.64" points="362.82,-397.15 355.26,-387.16 347.7,-397.16 362.82,-397.15"/>
<text text-anchor="middle" x="382.26" y="-425.85" font-family="Times,serif" font-size="10.00">1 file 861B</text>
</g>
<!-- o1 -->
<g id="node2" class="node">
<title>o1</title>
<g id="a_node2"><a xlink:title="External data input">
<ellipse fill="black" stroke="black" cx="835.26" cy="-473.45" rx="3.6" ry="3.6"/>
</a>
</g>
</g>
<!-- p1 -->
<g id="node7" class="node">
<title>p1</title>
<ellipse fill="#4545e6" stroke="black" cx="835.26" cy="-340.89" rx="111.03" ry="45.92"/>
<text text-anchor="start" x="786.76" y="-356.69" font-family="Times,serif" font-weight="bold" font-size="14.00">writeFile (4)</text>
<text text-anchor="start" x="767.26" y="-336.69" font-family="Times,serif" font-size="14.00">Input:</text>
<text text-anchor="start" x="826.26" y="-336.69" font-family="Times,serif" font-size="14.00">1 file</text>
<text text-anchor="start" x="866.26" y="-336.69" font-family="Times,serif" font-size="14.00">861B</text>
<text text-anchor="start" x="767.26" y="-317.69" font-family="Times,serif" font-size="14.00">Output:</text>
<text text-anchor="start" x="826.26" y="-317.69" font-family="Times,serif" font-size="14.00">1 file</text>
<text text-anchor="start" x="875.26" y="-317.69" font-family="Times,serif" font-size="14.00">8B</text>
</g>
<!-- o1&#45;&gt;p1 -->
<g id="edge2" class="edge">
<title>o1&#45;&gt;p1</title>
<path fill="none" stroke="#4545e6" stroke-width="8.64" d="M835.26,-469.72C835.26,-460.18 835.26,-427.25 835.26,-397.2"/>
<polygon fill="#4545e6" stroke="#4545e6" stroke-width="8.64" points="842.82,-397.15 835.26,-387.16 827.7,-397.16 842.82,-397.15"/>
<text text-anchor="middle" x="862.26" y="-425.85" font-family="Times,serif" font-size="10.00">1 file 861B</text>
</g>
<!-- o2 -->
<g id="node3" class="node">
<title>o2</title>
<g id="a_node3"><a xlink:title="External data input">
<ellipse fill="black" stroke="black" cx="115.26" cy="-473.45" rx="3.6" ry="3.6"/>
</a>
</g>
</g>
<!-- p2 -->
<g id="node8" class="node">
<title>p2</title>
<ellipse fill="#4545e6" stroke="black" cx="115.26" cy="-340.89" rx="111.03" ry="45.92"/>
<text text-anchor="start" x="66.76" y="-356.69" font-family="Times,serif" font-weight="bold" font-size="14.00">writeFile (1)</text>
<text text-anchor="start" x="47.26" y="-336.69" font-family="Times,serif" font-size="14.00">Input:</text>
<text text-anchor="start" x="106.26" y="-336.69" font-family="Times,serif" font-size="14.00">1 file</text>
<text text-anchor="start" x="146.26" y="-336.69" font-family="Times,serif" font-size="14.00">861B</text>
<text text-anchor="start" x="47.26" y="-317.69" font-family="Times,serif" font-size="14.00">Output:</text>
<text text-anchor="start" x="106.26" y="-317.69" font-family="Times,serif" font-size="14.00">1 file</text>
<text text-anchor="start" x="155.26" y="-317.69" font-family="Times,serif" font-size="14.00">8B</text>
</g>
<!-- o2&#45;&gt;p2 -->
<g id="edge3" class="edge">
<title>o2&#45;&gt;p2</title>
<path fill="none" stroke="#4545e6" stroke-width="8.64" d="M115.26,-469.72C115.26,-460.18 115.26,-427.25 115.26,-397.2"/>
<polygon fill="#4545e6" stroke="#4545e6" stroke-width="8.64" points="122.82,-397.15 115.26,-387.16 107.7,-397.16 122.82,-397.15"/>
<text text-anchor="middle" x="142.26" y="-425.85" font-family="Times,serif" font-size="10.00">1 file 861B</text>
</g>
<!-- o3 -->
<g id="node4" class="node">
<title>o3</title>
<g id="a_node4"><a xlink:title="External data input">
<ellipse fill="black" stroke="black" cx="1075.26" cy="-473.45" rx="3.6" ry="3.6"/>
</a>
</g>
</g>
<!-- p3 -->
<g id="node9" class="node">
<title>p3</title>
<ellipse fill="#4545e6" stroke="black" cx="1075.26" cy="-340.89" rx="111.03" ry="45.92"/>
<text text-anchor="start" x="1026.76" y="-356.69" font-family="Times,serif" font-weight="bold" font-size="14.00">writeFile (5)</text>
<text text-anchor="start" x="1007.26" y="-336.69" font-family="Times,serif" font-size="14.00">Input:</text>
<text text-anchor="start" x="1066.26" y="-336.69" font-family="Times,serif" font-size="14.00">1 file</text>
<text text-anchor="start" x="1106.26" y="-336.69" font-family="Times,serif" font-size="14.00">861B</text>
<text text-anchor="start" x="1007.26" y="-317.69" font-family="Times,serif" font-size="14.00">Output:</text>
<text text-anchor="start" x="1066.26" y="-317.69" font-family="Times,serif" font-size="14.00">1 file</text>
<text text-anchor="start" x="1115.26" y="-317.69" font-family="Times,serif" font-size="14.00">8B</text>
</g>
<!-- o3&#45;&gt;p3 -->
<g id="edge4" class="edge">
<title>o3&#45;&gt;p3</title>
<path fill="none" stroke="#4545e6" stroke-width="8.64" d="M1075.26,-469.72C1075.26,-460.18 1075.26,-427.25 1075.26,-397.2"/>
<polygon fill="#4545e6" stroke="#4545e6" stroke-width="8.64" points="1082.82,-397.15 1075.26,-387.16 1067.7,-397.16 1082.82,-397.15"/>
<text text-anchor="middle" x="1102.26" y="-425.85" font-family="Times,serif" font-size="10.00">1 file 861B</text>
</g>
<!-- o4 -->
<g id="node5" class="node">
<title>o4</title>
<g id="a_node5"><a xlink:title="External data input">
<ellipse fill="black" stroke="black" cx="595.26" cy="-473.45" rx="3.6" ry="3.6"/>
</a>
</g>
</g>
<!-- p4 -->
<g id="node10" class="node">
<title>p4</title>
<ellipse fill="#4545e6" stroke="black" cx="595.26" cy="-340.89" rx="111.03" ry="45.92"/>
<text text-anchor="start" x="546.76" y="-356.69" font-family="Times,serif" font-weight="bold" font-size="14.00">writeFile (3)</text>
<text text-anchor="start" x="527.26" y="-336.69" font-family="Times,serif" font-size="14.00">Input:</text>
<text text-anchor="start" x="586.26" y="-336.69" font-family="Times,serif" font-size="14.00">1 file</text>
<text text-anchor="start" x="626.26" y="-336.69" font-family="Times,serif" font-size="14.00">861B</text>
<text text-anchor="start" x="527.26" y="-317.69" font-family="Times,serif" font-size="14.00">Output:</text>
<text text-anchor="start" x="586.26" y="-317.69" font-family="Times,serif" font-size="14.00">1 file</text>
<text text-anchor="start" x="635.26" y="-317.69" font-family="Times,serif" font-size="14.00">8B</text>
</g>
<!-- o4&#45;&gt;p4 -->
<g id="edge5" class="edge">
<title>o4&#45;&gt;p4</title>
<path fill="none" stroke="#4545e6" stroke-width="8.64" d="M595.26,-469.72C595.26,-460.18 595.26,-427.25 595.26,-397.2"/>
<polygon fill="#4545e6" stroke="#4545e6" stroke-width="8.64" points="602.82,-397.15 595.26,-387.16 587.7,-397.16 602.82,-397.15"/>
<text text-anchor="middle" x="622.26" y="-425.85" font-family="Times,serif" font-size="10.00">1 file 861B</text>
</g>
<!-- p7 -->
<g id="node13" class="node">
<title>p7</title>
<ellipse fill="#e64545" stroke="black" cx="115.26" cy="-165.96" rx="115.02" ry="45.92"/>
<text text-anchor="start" x="44.26" y="-181.76" font-family="Times,serif" font-weight="bold" font-size="14.00">combineFilesA (1)</text>
<text text-anchor="start" x="44.26" y="-161.76" font-family="Times,serif" font-size="14.00">Input:</text>
<text text-anchor="start" x="108.26" y="-161.76" font-family="Times,serif" font-size="14.00">2 files</text>
<text text-anchor="start" x="156.76" y="-161.76" font-family="Times,serif" font-size="14.00">16B</text>
<text text-anchor="start" x="44.26" y="-142.76" font-family="Times,serif" font-size="14.00">Output:</text>
<text text-anchor="start" x="111.76" y="-142.76" font-family="Times,serif" font-size="14.00">1 file</text>
<text text-anchor="start" x="156.76" y="-142.76" font-family="Times,serif" font-size="14.00">16B</text>
</g>
<!-- p0&#45;&gt;p7 -->
<g id="edge11" class="edge">
<title>p0&#45;&gt;p7</title>
<path fill="none" stroke="#e64545" stroke-width="0.71" d="M308.32,-299.17C288.66,-282.69 265.28,-263.84 243.26,-247.92 225.33,-234.97 205.36,-221.79 186.64,-209.93"/>
<polygon fill="#e64545" stroke="#e64545" stroke-width="0.71" points="188.46,-206.94 178.13,-204.57 184.73,-212.86 188.46,-206.94"/>
<text text-anchor="middle" x="276.26" y="-250.92" font-family="Times,serif" font-size="10.00">1 file 8B</text>
</g>
<!-- p8 -->
<g id="node14" class="node">
<title>p8</title>
<ellipse fill="#45e645" stroke="black" cx="365.26" cy="-165.96" rx="116.85" ry="45.92"/>
<text text-anchor="start" x="293.26" y="-181.76" font-family="Times,serif" font-weight="bold" font-size="14.00">combineFilesB (1)</text>
<text text-anchor="start" x="293.26" y="-161.76" font-family="Times,serif" font-size="14.00">Input:</text>
<text text-anchor="start" x="358.26" y="-161.76" font-family="Times,serif" font-size="14.00">3 files</text>
<text text-anchor="start" x="406.76" y="-161.76" font-family="Times,serif" font-size="14.00">24B</text>
<text text-anchor="start" x="293.26" y="-142.76" font-family="Times,serif" font-size="14.00">Output:</text>
<text text-anchor="start" x="361.76" y="-142.76" font-family="Times,serif" font-size="14.00">1 file</text>
<text text-anchor="start" x="406.76" y="-142.76" font-family="Times,serif" font-size="14.00">24B</text>
</g>
<!-- p0&#45;&gt;p8 -->
<g id="edge14" class="edge">
<title>p0&#45;&gt;p8</title>
<path fill="none" stroke="#45e645" stroke-width="0.71" d="M357.86,-294.9C359.15,-272.67 360.71,-245.65 362.07,-222.18"/>
<polygon fill="#45e645" stroke="#45e645" stroke-width="0.71" points="365.57,-222.2 362.65,-212.02 358.58,-221.8 365.57,-222.2"/>
<text text-anchor="middle" x="381.26" y="-250.92" font-family="Times,serif" font-size="10.00">1 file 8B</text>
</g>
<!-- p5 -->
<g id="node11" class="node">
<title>p5</title>
<ellipse fill="#45e645" stroke="black" cx="1075.26" cy="-165.96" rx="116.85" ry="45.92"/>
<text text-anchor="start" x="1003.26" y="-181.76" font-family="Times,serif" font-weight="bold" font-size="14.00">combineFilesB (2)</text>
<text text-anchor="start" x="1003.26" y="-161.76" font-family="Times,serif" font-size="14.00">Input:</text>
<text text-anchor="start" x="1068.26" y="-161.76" font-family="Times,serif" font-size="14.00">2 files</text>
<text text-anchor="start" x="1116.76" y="-161.76" font-family="Times,serif" font-size="14.00">16B</text>
<text text-anchor="start" x="1003.26" y="-142.76" font-family="Times,serif" font-size="14.00">Output:</text>
<text text-anchor="start" x="1071.76" y="-142.76" font-family="Times,serif" font-size="14.00">1 file</text>
<text text-anchor="start" x="1116.76" y="-142.76" font-family="Times,serif" font-size="14.00">16B</text>
</g>
<!-- p1&#45;&gt;p5 -->
<g id="edge7" class="edge">
<title>p1&#45;&gt;p5</title>
<path fill="none" stroke="#45e645" stroke-width="0.71" d="M876.79,-297.88C894.12,-281.39 914.92,-262.87 935.26,-247.92 954.56,-233.74 976.54,-220.01 997.28,-208.02"/>
<polygon fill="#45e645" stroke="#45e645" stroke-width="0.71" points="999.13,-210.99 1006.08,-202.99 995.66,-204.91 999.13,-210.99"/>
<text text-anchor="middle" x="956.26" y="-250.92" font-family="Times,serif" font-size="10.00">1 file 8B</text>
</g>
<!-- p6 -->
<g id="node12" class="node">
<title>p6</title>
<ellipse fill="#e64545" stroke="black" cx="825.26" cy="-165.96" rx="115.02" ry="45.92"/>
<text text-anchor="start" x="754.26" y="-181.76" font-family="Times,serif" font-weight="bold" font-size="14.00">combineFilesA (2)</text>
<text text-anchor="start" x="754.26" y="-161.76" font-family="Times,serif" font-size="14.00">Input:</text>
<text text-anchor="start" x="818.26" y="-161.76" font-family="Times,serif" font-size="14.00">3 files</text>
<text text-anchor="start" x="866.76" y="-161.76" font-family="Times,serif" font-size="14.00">24B</text>
<text text-anchor="start" x="754.26" y="-142.76" font-family="Times,serif" font-size="14.00">Output:</text>
<text text-anchor="start" x="821.76" y="-142.76" font-family="Times,serif" font-size="14.00">1 file</text>
<text text-anchor="start" x="866.76" y="-142.76" font-family="Times,serif" font-size="14.00">24B</text>
</g>
<!-- p1&#45;&gt;p6 -->
<g id="edge10" class="edge">
<title>p1&#45;&gt;p6</title>
<path fill="none" stroke="#e64545" stroke-width="0.71" d="M832.66,-294.9C831.37,-272.67 829.81,-245.65 828.45,-222.18"/>
<polygon fill="#e64545" stroke="#e64545" stroke-width="0.71" points="831.94,-221.8 827.86,-212.02 824.95,-222.2 831.94,-221.8"/>
<text text-anchor="middle" x="851.26" y="-250.92" font-family="Times,serif" font-size="10.00">1 file 8B</text>
</g>
<!-- p2&#45;&gt;p7 -->
<g id="edge12" class="edge">
<title>p2&#45;&gt;p7</title>
<path fill="none" stroke="#e64545" stroke-width="0.71" d="M115.26,-294.9C115.26,-272.67 115.26,-245.65 115.26,-222.18"/>
<polygon fill="#e64545" stroke="#e64545" stroke-width="0.71" points="118.76,-222.02 115.26,-212.02 111.76,-222.02 118.76,-222.02"/>
<text text-anchor="middle" x="136.26" y="-250.92" font-family="Times,serif" font-size="10.00">1 file 8B</text>
</g>
<!-- p2&#45;&gt;p8 -->
<g id="edge15" class="edge">
<title>p2&#45;&gt;p8</title>
<path fill="none" stroke="#45e645" stroke-width="0.71" d="M147.68,-296.69C161.66,-280.03 178.98,-261.7 197.26,-247.92 220.39,-230.49 247.87,-215.36 273.83,-203.04"/>
<polygon fill="#45e645" stroke="#45e645" stroke-width="0.71" points="275.35,-206.2 282.94,-198.81 272.4,-199.85 275.35,-206.2"/>
<text text-anchor="middle" x="218.26" y="-250.92" font-family="Times,serif" font-size="10.00">1 file 8B</text>
</g>
<!-- p3&#45;&gt;p5 -->
<g id="edge6" class="edge">
<title>p3&#45;&gt;p5</title>
<path fill="none" stroke="#45e645" stroke-width="0.71" d="M1075.26,-294.9C1075.26,-272.67 1075.26,-245.65 1075.26,-222.18"/>
<polygon fill="#45e645" stroke="#45e645" stroke-width="0.71" points="1078.76,-222.02 1075.26,-212.02 1071.76,-222.02 1078.76,-222.02"/>
<text text-anchor="middle" x="1096.26" y="-250.92" font-family="Times,serif" font-size="10.00">1 file 8B</text>
</g>
<!-- p3&#45;&gt;p6 -->
<g id="edge9" class="edge">
<title>p3&#45;&gt;p6</title>
<path fill="none" stroke="#e64545" stroke-width="0.71" d="M1035.41,-297.93C1018.39,-281.26 997.74,-262.6 977.26,-247.92 955.91,-232.63 931.31,-218.3 908.21,-206.07"/>
<polygon fill="#e64545" stroke="#e64545" stroke-width="0.71" points="909.59,-202.84 899.11,-201.32 906.35,-209.05 909.59,-202.84"/>
<text text-anchor="middle" x="1009.26" y="-250.92" font-family="Times,serif" font-size="10.00">1 file 8B</text>
</g>
<!-- p4&#45;&gt;p6 -->
<g id="edge8" class="edge">
<title>p4&#45;&gt;p6</title>
<path fill="none" stroke="#e64545" stroke-width="0.71" d="M648.03,-300.21C682.55,-274.26 727.78,-240.25 763.91,-213.09"/>
<polygon fill="#e64545" stroke="#e64545" stroke-width="0.71" points="766.05,-215.86 771.94,-207.05 761.84,-210.26 766.05,-215.86"/>
<text text-anchor="middle" x="737.26" y="-250.92" font-family="Times,serif" font-size="10.00">1 file 8B</text>
</g>
<!-- p4&#45;&gt;p8 -->
<g id="edge13" class="edge">
<title>p4&#45;&gt;p8</title>
<path fill="none" stroke="#45e645" stroke-width="0.71" d="M542.49,-300.21C507.97,-274.26 462.74,-240.25 426.61,-213.09"/>
<polygon fill="#45e645" stroke="#45e645" stroke-width="0.71" points="428.67,-210.26 418.58,-207.05 424.47,-215.86 428.67,-210.26"/>
<text text-anchor="middle" x="507.26" y="-250.92" font-family="Times,serif" font-size="10.00">1 file 8B</text>
</g>
<!-- legend -->
<g id="node15" class="node">
<title>legend</title>
<polygon fill="none" stroke="black" points="56.26,-63 56.26,-84 174.26,-84 174.26,-63 56.26,-63"/>
<text text-anchor="start" x="92.76" y="-70.8" font-family="Times,serif" font-weight="bold" font-size="14.00">Tasks</text>
<polygon fill="#e64545" stroke="transparent" points="56.26,-42 56.26,-63 62.26,-63 62.26,-42 56.26,-42"/>
<polygon fill="none" stroke="black" points="56.26,-42 56.26,-63 62.26,-63 62.26,-42 56.26,-42"/>
<polygon fill="none" stroke="black" points="62.26,-42 62.26,-63 174.26,-63 174.26,-42 62.26,-42"/>
<text text-anchor="start" x="65.76" y="-48.8" font-family="Times,serif" font-size="14.00">combineFilesA</text>
<polygon fill="#45e645" stroke="transparent" points="56.26,-21 56.26,-42 62.26,-42 62.26,-21 56.26,-21"/>
<polygon fill="none" stroke="black" points="56.26,-21 56.26,-42 62.26,-42 62.26,-21 56.26,-21"/>
<polygon fill="none" stroke="black" points="62.26,-21 62.26,-42 174.26,-42 174.26,-21 62.26,-21"/>
<text text-anchor="start" x="65.26" y="-27.8" font-family="Times,serif" font-size="14.00">combineFilesB</text>
<polygon fill="#4545e6" stroke="transparent" points="56.26,0 56.26,-21 62.26,-21 62.26,0 56.26,0"/>
<polygon fill="none" stroke="black" points="56.26,0 56.26,-21 62.26,-21 62.26,0 56.26,0"/>
<polygon fill="none" stroke="black" points="62.26,0 62.26,-21 174.26,-21 174.26,0 62.26,0"/>
<text text-anchor="start" x="85.76" y="-6.8" font-family="Times,serif" font-size="14.00">writeFile</text>
</g>
</g>
</svg>
