<?xml version="1.0" encoding="UTF-8" standalone="no"?>
<!DOCTYPE svg PUBLIC "-//W3C//DTD SVG 1.1//EN"
 "http://www.w3.org/Graphics/SVG/1.1/DTD/svg11.dtd">
<!-- Generated by graphviz version 2.43.0 (0)
 -->
<!-- Title: physicalDag Pages: 1 -->
<svg width="1365pt" height="485pt"
 viewBox="0.00 0.00 1365.39 485.05" xmlns="http://www.w3.org/2000/svg" xmlns:xlink="http://www.w3.org/1999/xlink">
<g id="graph0" class="graph" transform="scale(1 1) rotate(0) translate(4 481.05)">
<title>physicalDag</title>
<polygon fill="white" stroke="transparent" points="-4,4 -4,-481.05 1361.39,-481.05 1361.39,4 -4,4"/>
<!-- v0 -->
<g id="node1" class="node">
<title>v0</title>
<ellipse fill="black" stroke="black" cx="678.69" cy="-473.45" rx="3.6" ry="3.6"/>
</g>
<!-- v1 -->
<g id="node6" class="node">
<title>v1</title>
<ellipse fill="#4545e6" stroke="black" cx="678.69" cy="-340.89" rx="128.89" ry="45.92"/>
<text text-anchor="start" x="629.69" y="-356.69" font-family="Times,serif" font-weight="bold" font-size="14.00">writeFile (3)</text>
<text text-anchor="start" x="597.69" y="-336.69" font-family="Times,serif" font-size="14.00">Input:</text>
<text text-anchor="start" x="659.69" y="-336.69" font-family="Times,serif" font-size="14.00">No input files</text>
<text text-anchor="start" x="597.69" y="-317.69" font-family="Times,serif" font-size="14.00">Output:</text>
<text text-anchor="start" x="656.69" y="-317.69" font-family="Times,serif" font-size="14.00">1</text>
<text text-anchor="start" x="670.69" y="-317.69" font-family="Times,serif" font-size="14.00">file</text>
<text text-anchor="start" x="696.69" y="-317.69" font-family="Times,serif" font-size="14.00">(357MB)</text>
</g>
<!-- v0&#45;&gt;v1 -->
<g id="edge1" class="edge">
<title>v0&#45;&gt;v1</title>
<path fill="none" stroke="#4545e6" d="M678.69,-469.72C678.69,-460.18 678.69,-427.25 678.69,-397.2"/>
<polygon fill="#4545e6" stroke="#4545e6" points="682.19,-397.15 678.69,-387.16 675.19,-397.16 682.19,-397.15"/>
<text text-anchor="middle" x="713.69" y="-425.85" font-family="Times,serif" font-size="10.00">No input files</text>
</g>
<!-- v2 -->
<g id="node2" class="node">
<title>v2</title>
<ellipse fill="black" stroke="black" cx="953.69" cy="-473.45" rx="3.6" ry="3.6"/>
</g>
<!-- v3 -->
<g id="node7" class="node">
<title>v3</title>
<ellipse fill="#4545e6" stroke="black" cx="953.69" cy="-340.89" rx="128.89" ry="45.92"/>
<text text-anchor="start" x="904.69" y="-356.69" font-family="Times,serif" font-weight="bold" font-size="14.00">writeFile (1)</text>
<text text-anchor="start" x="872.69" y="-336.69" font-family="Times,serif" font-size="14.00">Input:</text>
<text text-anchor="start" x="934.69" y="-336.69" font-family="Times,serif" font-size="14.00">No input files</text>
<text text-anchor="start" x="872.69" y="-317.69" font-family="Times,serif" font-size="14.00">Output:</text>
<text text-anchor="start" x="931.69" y="-317.69" font-family="Times,serif" font-size="14.00">1</text>
<text text-anchor="start" x="945.69" y="-317.69" font-family="Times,serif" font-size="14.00">file</text>
<text text-anchor="start" x="971.69" y="-317.69" font-family="Times,serif" font-size="14.00">(834MB)</text>
</g>
<!-- v2&#45;&gt;v3 -->
<g id="edge4" class="edge">
<title>v2&#45;&gt;v3</title>
<path fill="none" stroke="#4545e6" d="M953.69,-469.72C953.69,-460.18 953.69,-427.25 953.69,-397.2"/>
<polygon fill="#4545e6" stroke="#4545e6" points="957.19,-397.15 953.69,-387.16 950.19,-397.16 957.19,-397.15"/>
<text text-anchor="middle" x="988.69" y="-425.85" font-family="Times,serif" font-size="10.00">No input files</text>
</g>
<!-- v5 -->
<g id="node3" class="node">
<title>v5</title>
<ellipse fill="black" stroke="black" cx="403.69" cy="-473.45" rx="3.6" ry="3.6"/>
</g>
<!-- v6 -->
<g id="node9" class="node">
<title>v6</title>
<ellipse fill="#4545e6" stroke="black" cx="403.69" cy="-340.89" rx="128.89" ry="45.92"/>
<text text-anchor="start" x="354.69" y="-356.69" font-family="Times,serif" font-weight="bold" font-size="14.00">writeFile (5)</text>
<text text-anchor="start" x="322.69" y="-336.69" font-family="Times,serif" font-size="14.00">Input:</text>
<text text-anchor="start" x="384.69" y="-336.69" font-family="Times,serif" font-size="14.00">No input files</text>
<text text-anchor="start" x="322.69" y="-317.69" font-family="Times,serif" font-size="14.00">Output:</text>
<text text-anchor="start" x="381.69" y="-317.69" font-family="Times,serif" font-size="14.00">1</text>
<text text-anchor="start" x="395.69" y="-317.69" font-family="Times,serif" font-size="14.00">file</text>
<text text-anchor="start" x="421.69" y="-317.69" font-family="Times,serif" font-size="14.00">(944MB)</text>
</g>
<!-- v5&#45;&gt;v6 -->
<g id="edge9" class="edge">
<title>v5&#45;&gt;v6</title>
<path fill="none" stroke="#4545e6" d="M403.69,-469.72C403.69,-460.18 403.69,-427.25 403.69,-397.2"/>
<polygon fill="#4545e6" stroke="#4545e6" points="407.19,-397.15 403.69,-387.16 400.19,-397.16 407.19,-397.15"/>
<text text-anchor="middle" x="438.69" y="-425.85" font-family="Times,serif" font-size="10.00">No input files</text>
</g>
<!-- v7 -->
<g id="node4" class="node">
<title>v7</title>
<ellipse fill="black" stroke="black" cx="128.69" cy="-473.45" rx="3.6" ry="3.6"/>
</g>
<!-- v8 -->
<g id="node10" class="node">
<title>v8</title>
<ellipse fill="#4545e6" stroke="black" cx="128.69" cy="-340.89" rx="128.89" ry="45.92"/>
<text text-anchor="start" x="79.69" y="-356.69" font-family="Times,serif" font-weight="bold" font-size="14.00">writeFile (4)</text>
<text text-anchor="start" x="47.69" y="-336.69" font-family="Times,serif" font-size="14.00">Input:</text>
<text text-anchor="start" x="109.69" y="-336.69" font-family="Times,serif" font-size="14.00">No input files</text>
<text text-anchor="start" x="47.69" y="-317.69" font-family="Times,serif" font-size="14.00">Output:</text>
<text text-anchor="start" x="106.69" y="-317.69" font-family="Times,serif" font-size="14.00">1</text>
<text text-anchor="start" x="120.69" y="-317.69" font-family="Times,serif" font-size="14.00">file</text>
<text text-anchor="start" x="146.69" y="-317.69" font-family="Times,serif" font-size="14.00">(939MB)</text>
</g>
<!-- v7&#45;&gt;v8 -->
<g id="edge11" class="edge">
<title>v7&#45;&gt;v8</title>
<path fill="none" stroke="#4545e6" d="M128.69,-469.72C128.69,-460.18 128.69,-427.25 128.69,-397.2"/>
<polygon fill="#4545e6" stroke="#4545e6" points="132.19,-397.15 128.69,-387.16 125.19,-397.16 132.19,-397.15"/>
<text text-anchor="middle" x="163.69" y="-425.85" font-family="Times,serif" font-size="10.00">No input files</text>
</g>
<!-- v12 -->
<g id="node5" class="node">
<title>v12</title>
<ellipse fill="black" stroke="black" cx="1228.69" cy="-473.45" rx="3.6" ry="3.6"/>
</g>
<!-- v13 -->
<g id="node14" class="node">
<title>v13</title>
<ellipse fill="#4545e6" stroke="black" cx="1228.69" cy="-340.89" rx="128.89" ry="45.92"/>
<text text-anchor="start" x="1179.69" y="-356.69" font-family="Times,serif" font-weight="bold" font-size="14.00">writeFile (2)</text>
<text text-anchor="start" x="1147.69" y="-336.69" font-family="Times,serif" font-size="14.00">Input:</text>
<text text-anchor="start" x="1209.69" y="-336.69" font-family="Times,serif" font-size="14.00">No input files</text>
<text text-anchor="start" x="1147.69" y="-317.69" font-family="Times,serif" font-size="14.00">Output:</text>
<text text-anchor="start" x="1206.69" y="-317.69" font-family="Times,serif" font-size="14.00">1</text>
<text text-anchor="start" x="1220.69" y="-317.69" font-family="Times,serif" font-size="14.00">file</text>
<text text-anchor="start" x="1246.69" y="-317.69" font-family="Times,serif" font-size="14.00">(958MB)</text>
</g>
<!-- v12&#45;&gt;v13 -->
<g id="edge15" class="edge">
<title>v12&#45;&gt;v13</title>
<path fill="none" stroke="#4545e6" d="M1228.69,-469.72C1228.69,-460.18 1228.69,-427.25 1228.69,-397.2"/>
<polygon fill="#4545e6" stroke="#4545e6" points="1232.19,-397.15 1228.69,-387.16 1225.19,-397.16 1232.19,-397.15"/>
<text text-anchor="middle" x="1263.69" y="-425.85" font-family="Times,serif" font-size="10.00">No input files</text>
</g>
<!-- v4 -->
<g id="node8" class="node">
<title>v4</title>
<ellipse fill="#e64545" stroke="black" cx="413.69" cy="-165.96" rx="128.89" ry="45.92"/>
<text text-anchor="start" x="342.19" y="-181.76" font-family="Times,serif" font-weight="bold" font-size="14.00">combineFilesA (1)</text>
<text text-anchor="start" x="332.69" y="-161.76" font-family="Times,serif" font-size="14.00">Input:</text>
<text text-anchor="start" x="391.69" y="-161.76" font-family="Times,serif" font-size="14.00">3</text>
<text text-anchor="start" x="405.69" y="-161.76" font-family="Times,serif" font-size="14.00">files</text>
<text text-anchor="start" x="439.69" y="-161.76" font-family="Times,serif" font-size="14.00">(2.2GB)</text>
<text text-anchor="start" x="332.69" y="-142.76" font-family="Times,serif" font-size="14.00">Output:</text>
<text text-anchor="start" x="391.69" y="-142.76" font-family="Times,serif" font-size="14.00">1</text>
<text text-anchor="start" x="409.69" y="-142.76" font-family="Times,serif" font-size="14.00">file</text>
<text text-anchor="start" x="439.69" y="-142.76" font-family="Times,serif" font-size="14.00">(2.2GB)</text>
</g>
<!-- v1&#45;&gt;v4 -->
<g id="edge3" class="edge">
<title>v1&#45;&gt;v4</title>
<path fill="none" stroke="#e64545" d="M617.9,-300.21C577.73,-274 524.97,-239.58 483.15,-212.28"/>
<polygon fill="#e64545" stroke="#e64545" points="484.95,-209.28 474.67,-206.75 481.13,-215.14 484.95,-209.28"/>
<text text-anchor="middle" x="589.69" y="-250.92" font-family="Times,serif" font-size="10.00">1 file (357MB)</text>
</g>
<!-- v9 -->
<g id="node11" class="node">
<title>v9</title>
<ellipse fill="#45e645" stroke="black" cx="943.69" cy="-165.96" rx="128.89" ry="45.92"/>
<text text-anchor="start" x="871.19" y="-181.76" font-family="Times,serif" font-weight="bold" font-size="14.00">combineFilesB (2)</text>
<text text-anchor="start" x="862.69" y="-161.76" font-family="Times,serif" font-size="14.00">Input:</text>
<text text-anchor="start" x="921.69" y="-161.76" font-family="Times,serif" font-size="14.00">3</text>
<text text-anchor="start" x="935.69" y="-161.76" font-family="Times,serif" font-size="14.00">files</text>
<text text-anchor="start" x="969.69" y="-161.76" font-family="Times,serif" font-size="14.00">(2.1GB)</text>
<text text-anchor="start" x="862.69" y="-142.76" font-family="Times,serif" font-size="14.00">Output:</text>
<text text-anchor="start" x="921.69" y="-142.76" font-family="Times,serif" font-size="14.00">1</text>
<text text-anchor="start" x="939.69" y="-142.76" font-family="Times,serif" font-size="14.00">file</text>
<text text-anchor="start" x="969.69" y="-142.76" font-family="Times,serif" font-size="14.00">(2.1GB)</text>
</g>
<!-- v1&#45;&gt;v9 -->
<g id="edge2" class="edge">
<title>v1&#45;&gt;v9</title>
<path fill="none" stroke="#45e645" d="M739.49,-300.21C779.66,-274 832.42,-239.58 874.24,-212.28"/>
<polygon fill="#45e645" stroke="#45e645" points="876.26,-215.14 882.72,-206.75 872.43,-209.28 876.26,-215.14"/>
<text text-anchor="middle" x="854.69" y="-250.92" font-family="Times,serif" font-size="10.00">1 file (357MB)</text>
</g>
<!-- v3&#45;&gt;v9 -->
<g id="edge5" class="edge">
<title>v3&#45;&gt;v9</title>
<path fill="none" stroke="#45e645" d="M947.85,-294.57C946.57,-282.97 945.4,-270.5 944.69,-258.92 943.98,-247.21 943.59,-234.65 943.41,-222.69"/>
<polygon fill="#45e645" stroke="#45e645" points="946.9,-222.33 943.29,-212.37 939.9,-222.4 946.9,-222.33"/>
<text text-anchor="middle" x="980.69" y="-250.92" font-family="Times,serif" font-size="10.00">1 file (834MB)</text>
</g>
<!-- v10 -->
<g id="node12" class="node">
<title>v10</title>
<ellipse fill="#e64545" stroke="black" cx="1223.69" cy="-165.96" rx="128.89" ry="45.92"/>
<text text-anchor="start" x="1152.19" y="-181.76" font-family="Times,serif" font-weight="bold" font-size="14.00">combineFilesA (2)</text>
<text text-anchor="start" x="1142.69" y="-161.76" font-family="Times,serif" font-size="14.00">Input:</text>
<text text-anchor="start" x="1201.69" y="-161.76" font-family="Times,serif" font-size="14.00">2</text>
<text text-anchor="start" x="1215.69" y="-161.76" font-family="Times,serif" font-size="14.00">files</text>
<text text-anchor="start" x="1249.69" y="-161.76" font-family="Times,serif" font-size="14.00">(1.8GB)</text>
<text text-anchor="start" x="1142.69" y="-142.76" font-family="Times,serif" font-size="14.00">Output:</text>
<text text-anchor="start" x="1201.69" y="-142.76" font-family="Times,serif" font-size="14.00">1</text>
<text text-anchor="start" x="1219.69" y="-142.76" font-family="Times,serif" font-size="14.00">file</text>
<text text-anchor="start" x="1249.69" y="-142.76" font-family="Times,serif" font-size="14.00">(1.8GB)</text>
</g>
<!-- v3&#45;&gt;v10 -->
<g id="edge6" class="edge">
<title>v3&#45;&gt;v10</title>
<path fill="none" stroke="#e64545" d="M987.79,-296.44C1002.46,-279.74 1020.61,-261.45 1039.69,-247.92 1064.89,-230.06 1094.65,-214.87 1122.82,-202.65"/>
<polygon fill="#e64545" stroke="#e64545" points="1124.47,-205.75 1132.3,-198.61 1121.72,-199.31 1124.47,-205.75"/>
<text text-anchor="middle" x="1075.69" y="-250.92" font-family="Times,serif" font-size="10.00">1 file (834MB)</text>
</g>
<!-- v6&#45;&gt;v4 -->
<g id="edge7" class="edge">
<title>v6&#45;&gt;v4</title>
<path fill="none" stroke="#e64545" d="M406.29,-294.9C407.58,-272.67 409.14,-245.65 410.5,-222.18"/>
<polygon fill="#e64545" stroke="#e64545" points="414,-222.2 411.09,-212.02 407.02,-221.8 414,-222.2"/>
<text text-anchor="middle" x="444.69" y="-250.92" font-family="Times,serif" font-size="10.00">1 file (944MB)</text>
</g>
<!-- v11 -->
<g id="node13" class="node">
<title>v11</title>
<ellipse fill="#45e645" stroke="black" cx="133.69" cy="-165.96" rx="128.89" ry="45.92"/>
<text text-anchor="start" x="61.19" y="-181.76" font-family="Times,serif" font-weight="bold" font-size="14.00">combineFilesB (1)</text>
<text text-anchor="start" x="52.69" y="-161.76" font-family="Times,serif" font-size="14.00">Input:</text>
<text text-anchor="start" x="111.69" y="-161.76" font-family="Times,serif" font-size="14.00">2</text>
<text text-anchor="start" x="125.69" y="-161.76" font-family="Times,serif" font-size="14.00">files</text>
<text text-anchor="start" x="159.69" y="-161.76" font-family="Times,serif" font-size="14.00">(1.8GB)</text>
<text text-anchor="start" x="52.69" y="-142.76" font-family="Times,serif" font-size="14.00">Output:</text>
<text text-anchor="start" x="111.69" y="-142.76" font-family="Times,serif" font-size="14.00">1</text>
<text text-anchor="start" x="129.69" y="-142.76" font-family="Times,serif" font-size="14.00">file</text>
<text text-anchor="start" x="159.69" y="-142.76" font-family="Times,serif" font-size="14.00">(1.8GB)</text>
</g>
<!-- v6&#45;&gt;v11 -->
<g id="edge10" class="edge">
<title>v6&#45;&gt;v11</title>
<path fill="none" stroke="#45e645" d="M359.6,-297.64C341.02,-281.02 318.64,-262.47 296.69,-247.92 273.93,-232.83 247.95,-218.69 223.52,-206.6"/>
<polygon fill="#45e645" stroke="#45e645" points="224.77,-203.31 214.24,-202.06 221.69,-209.6 224.77,-203.31"/>
<text text-anchor="middle" x="347.69" y="-250.92" font-family="Times,serif" font-size="10.00">1 file (944MB)</text>
</g>
<!-- v8&#45;&gt;v4 -->
<g id="edge8" class="edge">
<title>v8&#45;&gt;v4</title>
<path fill="none" stroke="#e64545" d="M165.52,-296.38C181.27,-279.67 200.63,-261.39 220.69,-247.92 248.17,-229.48 280.53,-213.91 310.81,-201.51"/>
<polygon fill="#e64545" stroke="#e64545" points="312.16,-204.74 320.13,-197.76 309.55,-198.24 312.16,-204.74"/>
<text text-anchor="middle" x="256.69" y="-250.92" font-family="Times,serif" font-size="10.00">1 file (939MB)</text>
</g>
<!-- v8&#45;&gt;v11 -->
<g id="edge12" class="edge">
<title>v8&#45;&gt;v11</title>
<path fill="none" stroke="#45e645" d="M128.84,-294.51C128.98,-279.66 129.24,-263.09 129.69,-247.92 129.95,-239.53 130.3,-230.66 130.69,-221.97"/>
<polygon fill="#45e645" stroke="#45e645" points="134.19,-222.07 131.16,-211.92 127.2,-221.74 134.19,-222.07"/>
<text text-anchor="middle" x="165.69" y="-250.92" font-family="Times,serif" font-size="10.00">1 file (939MB)</text>
</g>
<!-- v13&#45;&gt;v9 -->
<g id="edge13" class="edge">
<title>v13&#45;&gt;v9</title>
<path fill="none" stroke="#45e645" d="M1180.33,-298.02C1159.89,-281.36 1135.37,-262.69 1111.69,-247.92 1087.47,-232.82 1060,-218.51 1034.4,-206.25"/>
<polygon fill="#45e645" stroke="#45e645" points="1035.6,-202.94 1025.06,-201.83 1032.6,-209.27 1035.6,-202.94"/>
<text text-anchor="middle" x="1160.69" y="-250.92" font-family="Times,serif" font-size="10.00">1 file (958MB)</text>
</g>
<!-- v13&#45;&gt;v10 -->
<g id="edge14" class="edge">
<title>v13&#45;&gt;v10</title>
<path fill="none" stroke="#e64545" d="M1227.39,-294.9C1226.75,-272.67 1225.97,-245.65 1225.29,-222.18"/>
<polygon fill="#e64545" stroke="#e64545" points="1228.78,-221.91 1225,-212.02 1221.79,-222.12 1228.78,-221.91"/>
<text text-anchor="middle" x="1261.69" y="-250.92" font-family="Times,serif" font-size="10.00">1 file (958MB)</text>
</g>
<!-- legend -->
<g id="node15" class="node">
<title>legend</title>
<polygon fill="none" stroke="black" points="74.69,-63 74.69,-84 192.69,-84 192.69,-63 74.69,-63"/>
<text text-anchor="start" x="111.19" y="-70.8" font-family="Times,serif" font-weight="bold" font-size="14.00">Tasks</text>
<polygon fill="#e64545" stroke="transparent" points="74.69,-42 74.69,-63 80.69,-63 80.69,-42 74.69,-42"/>
<polygon fill="none" stroke="black" points="74.69,-42 74.69,-63 80.69,-63 80.69,-42 74.69,-42"/>
<polygon fill="none" stroke="black" points="80.69,-42 80.69,-63 192.69,-63 192.69,-42 80.69,-42"/>
<text text-anchor="start" x="84.19" y="-48.8" font-family="Times,serif" font-size="14.00">combineFilesA</text>
<polygon fill="#45e645" stroke="transparent" points="74.69,-21 74.69,-42 80.69,-42 80.69,-21 74.69,-21"/>
<polygon fill="none" stroke="black" points="74.69,-21 74.69,-42 80.69,-42 80.69,-21 74.69,-21"/>
<polygon fill="none" stroke="black" points="80.69,-21 80.69,-42 192.69,-42 192.69,-21 80.69,-21"/>
<text text-anchor="start" x="83.69" y="-27.8" font-family="Times,serif" font-size="14.00">combineFilesB</text>
<polygon fill="#4545e6" stroke="transparent" points="74.69,0 74.69,-21 80.69,-21 80.69,0 74.69,0"/>
<polygon fill="none" stroke="black" points="74.69,0 74.69,-21 80.69,-21 80.69,0 74.69,0"/>
<polygon fill="none" stroke="black" points="80.69,0 80.69,-21 192.69,-21 192.69,0 80.69,0"/>
<text text-anchor="start" x="104.19" y="-6.8" font-family="Times,serif" font-size="14.00">writeFile</text>
</g>
</g>
</svg>
